<?xml version="1.0" encoding="UTF-8"?>
<svg id="Layer_1" data-name="Layer 1" xmlns="http://www.w3.org/2000/svg" xmlns:xlink="http://www.w3.org/1999/xlink" viewBox="0 0 512 512">
  <defs>
    <style>
      .cls-1 {
        fill: #f5f3f5;
      }

      .cls-2 {
        fill: none;
      }

      .cls-3 {
        filter: url(#drop-shadow-4);
      }

      .cls-4 {
        clip-path: url(#clippath-1);
      }

      .cls-5 {
        fill: #574ae2;
      }

      .cls-6 {
        fill: #ff5e5b;
      }
    </style>
    <clipPath id="clippath-1">
      <circle class="cls-2" cx="256" cy="256" r="256"/>
    </clipPath>
    <filter id="drop-shadow-4" x="113.28" y="97.02" width="297.86" height="316.57" filterUnits="userSpaceOnUse">
      <feOffset dx="12.43" dy="12.43"/>
      <feGaussianBlur result="blur" stdDeviation="0"/>
      <feFlood flood-color="#000" flood-opacity=".5"/>
      <feComposite in2="blur" operator="in"/>
      <feComposite in="SourceGraphic"/>
    </filter>
  </defs>
  <g class="cls-4">
    <circle class="cls-5" cx="256" cy="256" r="257.61"/>
    <g class="cls-3">
      <path class="cls-1" d="M244.01,401.17c-15.63,0-29.47-2.6-41.53-7.78-12.05-5.18-21.44-13.04-28.16-23.56-6.72-10.52-10.08-23.89-10.08-40.1,0-13.44,2.26-24.91,6.79-34.4,4.53-9.5,10.88-17.27,19.07-23.34,8.18-6.06,17.71-10.74,28.6-14.02,10.88-3.29,22.68-5.37,35.39-6.25,13.73-1.02,24.73-2.26,32.98-3.72,8.25-1.46,14.24-3.62,17.97-6.46,3.73-2.85,5.59-6.61,5.59-11.29v-.88c0-6.28-2.41-11.14-7.23-14.57-4.82-3.43-11.03-5.15-18.63-5.15-8.47,0-15.34,1.83-20.6,5.48-5.26,3.65-8.47,9.28-9.64,16.87h-80.64c1.02-14.9,5.73-28.63,14.13-41.2,8.4-12.56,20.74-22.64,37.03-30.24,16.29-7.59,36.63-11.4,61.03-11.4,17.38,0,33.01,2.05,46.9,6.14,13.88,4.09,25.71,9.79,35.5,17.09,9.79,7.31,17.27,15.82,22.46,25.53,5.18,9.72,7.78,20.2,7.78,31.45v167.86h-82.4v-34.62h-1.75c-4.97,9.2-10.92,16.62-17.86,22.24-6.94,5.62-14.79,9.75-23.56,12.38-8.77,2.63-18.48,3.94-29.15,3.94ZM272.5,345.51c6.72,0,13.04-1.39,18.95-4.16,5.92-2.77,10.74-6.75,14.46-11.94,3.73-5.18,5.59-11.5,5.59-18.95v-20.16c-2.34.88-4.82,1.75-7.45,2.63-2.63.88-5.44,1.68-8.44,2.41-3,.73-6.06,1.39-9.2,1.97-3.14.59-6.46,1.17-9.97,1.75-6.87,1.02-12.46,2.74-16.76,5.15-4.31,2.41-7.49,5.33-9.53,8.77-2.05,3.43-3.07,7.27-3.07,11.5,0,6.87,2.37,12.09,7.12,15.67,4.75,3.58,10.85,5.37,18.3,5.37Z"/>
      <path class="cls-6" d="M151.36,172.07c-10.84,0-19.9-3.58-27.17-10.72-7.27-7.15-10.91-16.08-10.91-26.8s3.63-19.65,10.91-26.8c7.27-7.15,16.33-10.72,27.17-10.72s19.9,3.58,27.17,10.72c7.27,7.15,10.91,16.08,10.91,26.8s-3.64,19.66-10.91,26.8c-7.27,7.15-16.33,10.72-27.17,10.72Z"/>
    </g>
  </g>
</svg>