<?xml version="1.0" encoding="UTF-8"?>
<svg id="Graphic_Element_" data-name="Graphic Element
" xmlns="http://www.w3.org/2000/svg" viewBox="0 0 60 25">
  <defs>
    <style>
      .cls-1 {
        fill: #574ae2;
      }
    </style>
  </defs>
  <path class="cls-1" d="M59.5,9.36c-.18-.38-.34-.73-.5-1.08-.34-.74-.91-1.33-1.33-2.02-.23-.38-.6-.68-.88-1.04-.31-.4-.69-.72-.95-1.17-.14-.24-.43-.38-.62-.6-.11-.13-.18-.26-.25-.4-.04-.07-.05-.16.02-.22.07-.07.15-.09.24-.05.17.07.31.17.43.3.19.2.43.35.66.52.22.17.24.43.41.62.36.4.73.79,1.02,1.24.48.76,1.15,1.4,1.48,2.26.07.17.21.31.31.47.3.43.41.91.44,1.42.02.27-.27.46-.58.35-.5-.18-.97-.43-1.39-.75-.6-.45-1.16-.95-1.79-1.35-.37-.24-.72-.5-1.03-.77-.48-.43-1.08-.67-1.54-1.09-.61-.56-1.36-.9-2.01-1.41-.39-.31-.89-.48-1.28-.79-.56-.44-1.27-.55-1.87-.91-.35-.2-.78-.28-1.15-.46-.06-.03-.15-.06-.2,0-.06.08.04.13.09.17.38.28.63.7,1,1,.37.3.75.61,1.1.93.27.25.51.52.8.75.2.15.41.27.61.4.24.17.47.35.67.54.35.32.75.6,1.04.97.18.23.46.31.68.48.35.28.7.56.98.91.05.07.15.1.21.15.43.36.79.79,1.23,1.14.39.3.69.67,1.03,1.01.21.21.38.46.6.66.23.22.47.42.64.69.41.63.95,1.18,1.28,1.87.19.4.48.76.47,1.24-.01.51-.19.63-.69.5-.61-.16-1.12-.52-1.67-.8-.41-.21-.75-.51-1.13-.75-.25-.16-.55-.22-.78-.43-.38-.35-.85-.56-1.29-.82,0,0-.02,0-.02-.01-.77-.65-1.68-1.08-2.49-1.67-.56-.41-1.1-.85-1.7-1.2-.43-.26-.79-.64-1.22-.86-.62-.31-1.19-.67-1.73-1.1-.23-.18-.52-.29-.7-.54-.02-.03-.06-.07-.1-.08-.57-.2-.99-.64-1.53-.89-.41-.19-.69-.54-1.07-.77-.84-.49-1.65-1.05-2.5-1.54-.58-.34-1.19-.64-1.75-1.01-.49-.32-1.05-.54-1.58-.79-.65-.31-1.32-.6-1.94-.97-.15-.09-.33-.07-.48-.14-.38-.17-.76-.33-1.14-.5-.07-.03-.13-.09-.22-.09-.06,0-.14-.02-.17.04-.04.08.02.12.07.18.55.66,1.22,1.19,1.83,1.78.31.3.67.6,1.04.85.33.22.63.47.94.7.26.19.52.39.78.58.5.35.99.71,1.49,1.05.6.4,1.19.84,1.81,1.21.53.32,1.1.63,1.53,1.11.01.01.03.03.04.03.42.06.69.37,1.02.58.16.09.32.17.43.34.1.16.33.14.47.27.22.2.51.32.66.62.04.08.19.13.29.16.49.15.9.47,1.22.82.25.28.53.43.83.58.16.08.27.22.4.34.31.28.7.47.99.78.09.09.17.17.23.28.14.26.45.33.64.53.33.35.85.48,1.11.92.06.09.13.17.24.19.2.04.22.27.36.37.18.12.38.22.42.48.01.09.12.12.2.16.29.14.52.33.66.62.02.05.06.09.1.12.4.28.73.64,1.03,1.02.24.3.49.6.66.96.07.14.09.3-.01.46-.11.16-.26.11-.4.12-.56.02-.98-.32-1.45-.54-.67-.32-1.29-.75-1.92-1.14-.4-.25-.78-.54-1.22-.74-.19-.08-.38-.19-.51-.37-.03-.04-.07-.08-.12-.1-.42-.16-.77-.46-1.17-.68-.31-.18-.58-.42-.89-.6-.73-.42-1.41-.93-2.16-1.32-.17-.09-.34-.2-.44-.37-.03-.06-.09-.09-.14-.11-.73-.27-1.35-.73-2.03-1.08-.5-.26-.99-.54-1.48-.82-.44-.25-.86-.56-1.33-.76-.77-.33-1.52-.73-2.21-1.2-.46-.31-1-.47-1.4-.88-.16-.16-.4-.27-.62-.34-.52-.16-.96-.47-1.43-.75-.33-.19-.67-.35-1.04-.54.22.37.59.48.91.64.2.1.42.21.6.34.4.29.82.57,1.23.84.27.17.52.38.78.55.25.16.56.26.76.51.11.14.28.19.42.27.58.34,1.09.78,1.64,1.15.54.36,1.09.71,1.6,1.11.52.41,1.07.78,1.59,1.19.39.31.79.63,1.17.95.32.27.66.55.98.81.45.37.81.82,1.27,1.18.32.25.74.48.86.95.02.08.09.11.16.13.15.06.26.16.34.29.21.37.56.63.79.96.31.44.66.85.94,1.31.13.21.25.43.38.64.19.32.29.69.29,1.08,0,.21-.12.3-.36.32-.82.05-1.48-.31-2.1-.77-.19-.14-.37-.3-.62-.33-.23-.03-.41-.15-.57-.31-.18-.18-.4-.33-.62-.45-.72-.38-1.35-.89-2-1.36-.62-.45-1.3-.82-1.88-1.32-.52-.45-1.1-.82-1.62-1.28-.44-.38-.93-.7-1.41-1.02-.38-.26-.71-.59-1.08-.85-.41-.29-.81-.59-1.22-.88-.16-.12-.32-.22-.42-.4-.03-.05-.09-.09-.14-.11-.36-.13-.62-.39-.91-.63-.23-.19-.52-.29-.76-.48-.45-.34-.9-.68-1.33-1.04-.24-.2-.51-.34-.77-.51-.61-.4-1.27-.74-1.82-1.21-.52-.43-1.17-.62-1.67-1.06-.59-.53-1.34-.8-2.02-1.16-1.04-.55-2.03-1.21-3.1-1.71-.06-.03-.15-.06-.18-.11-.17-.28-.47-.31-.73-.43-.56-.25-1.1-.53-1.6-.87-.05-.03-.1-.08-.15-.11-.81-.39-1.62-.79-2.43-1.18-.01,0-.03,0-.07,0-.04.13.05.18.14.23.37.2.68.49,1.03.73.34.24.69.49,1.08.65.25.11.42.31.64.46.59.38,1.17.77,1.73,1.18.23.17.56.22.78.43.41.39.99.5,1.41.86.48.41,1.07.65,1.58,1.02.47.34,1.02.59,1.53.87.51.29,1.04.56,1.48.96.25.23.56.34.83.5.48.28.91.62,1.36.95.28.21.63.36.85.61.26.29.64.39.87.68.03.03.06.08.1.09.4.09.63.43.94.64.31.21.54.5.82.73.36.29.79.47,1.1.81.28.31.68.5.89.88.08.15.32.12.44.27.21.27.44.55.7.74.39.29.69.65,1.05.96.48.4.9.86,1.25,1.38.1.15.27.19.37.33.22.3.4.62.66.9.25.26.06.64-.31.65-.39,0-.74-.18-1.07-.34-.4-.2-.8-.41-1.19-.64-.58-.35-1.15-.72-1.69-1.13-.35-.27-.79-.43-1.16-.69-.47-.33-.99-.61-1.38-1.06-.02-.03-.05-.06-.08-.07-.48-.12-.79-.5-1.17-.76-.13-.09-.27-.16-.34-.32-.04-.1-.14-.15-.23-.17-.51-.09-.8-.53-1.21-.77-.28-.16-.56-.33-.81-.54-.42-.36-.92-.62-1.32-1.01,0,0,0-.02-.02-.02-.41-.15-.64-.56-1.05-.73-.29-.12-.53-.32-.74-.55-.03-.03-.06-.07-.1-.08-.67-.3-1.24-.77-1.9-1.1-.43-.22-.81-.49-1.21-.75-.06-.04-.13-.08-.16-.14-.14-.29-.41-.37-.69-.43-.49-.1-.82-.47-1.24-.69-.14-.08-.27-.2-.43-.25-.18-.06-.34-.15-.46-.3-.04-.05-.09-.1-.14-.11-.69-.2-1.2-.73-1.87-.96-.25-.09-.47-.24-.69-.39-.05-.03-.09-.09-.18-.05.03.16.16.22.29.28.18.08.33.18.41.36.03.06.08.09.13.13.48.31.87.73,1.37,1.02.2.12.44.27.56.51.04.09.13.11.22.14.1.03.21.08.25.18.11.29.35.46.58.58.36.19.59.56.99.69.18.06.17.3.32.4.32.22.63.45.94.68.52.4,1.03.83,1.48,1.3.18.19.42.32.6.51.35.36.72.71,1.12,1.03.27.22.56.42.81.66.18.17.3.4.52.54.35.23.56.61.88.84.55.39.95.93,1.46,1.36.39.33.8.67,1.1,1.12.16.24.39.44.51.72.03.07.1.14.16.17.56.25.85.76,1.22,1.21.39.46.81.9,1.19,1.37.18.23.36.45.47.73.04.11.14.18.24.24.24.16.38.38.42.67.04.34-.14.53-.48.49-.33-.05-.63-.18-.9-.38-.86-.64-1.72-1.26-2.54-1.94-.34-.29-.75-.49-1.07-.8-.58-.55-1.3-.92-1.88-1.48-.42-.41-.95-.7-1.43-1.05-.03-.02-.06-.03-.09-.06-.59-.6-1.34-1-1.97-1.54-.24-.21-.5-.39-.75-.59-.07-.05-.15-.12-.17-.19-.07-.27-.27-.36-.51-.44-.23-.07-.39-.27-.59-.38-.43-.24-.69-.67-1.14-.88-.29-.14-.59-.33-.73-.67-.03-.07-.08-.12-.15-.14-.65-.25-1.13-.74-1.67-1.16-.29-.22-.62-.37-.92-.57-.21-.14-.34-.36-.52-.52-.38-.31-.74-.65-1.21-.84-.32-.13-.62-.3-.75-.67-.01-.04-.05-.08-.09-.09-.26-.09-.45-.32-.67-.43-.78-.36-1.43-.91-2.11-1.4-.83-.61-1.71-1.14-2.55-1.75-.67-.49-1.37-.95-2.12-1.34-.61-.31-1.18-.7-1.78-1.03-.31-.17-.67-.26-.93-.51-.29-.28-.68-.27-.99-.47.11.22.22.41.45.54.24.13.5.28.68.53.13.18.39.26.58.38.39.24.77.51,1.1.8.58.51,1.29.8,1.9,1.28.36.28.81.51,1.18.79.38.29.84.42,1.18.75.08.08.21.12.32.18.16.08.31.17.38.35.02.04.04.07.09.09.7.37,1.37.81,1.99,1.3.57.44,1.13.89,1.71,1.31.49.36.91.8,1.43,1.12.41.26.74.63,1.09.97.26.26.59.46.89.69.11.09.22.18.28.31.01.03.03.08.05.09.3.09.42.41.66.54.35.19.52.55.83.77.26.19.5.42.7.67.43.54,1,.96,1.29,1.62.11.24.41.38.58.61.42.55.78,1.13,1.03,1.77.11.29-.02.55-.22.75-.15.15-.4.09-.58.04-.61-.19-1.2-.42-1.67-.88-.06-.06-.13-.09-.21-.11-.39-.13-.74-.36-1.04-.62-.38-.32-.77-.61-1.19-.86-.43-.27-.81-.58-1.17-.94-.07-.07-.15-.1-.23-.13-.13-.06-.28-.12-.34-.25-.16-.36-.52-.47-.8-.7-.34-.28-.75-.47-.99-.86-.02-.04-.06-.07-.09-.09-.62-.31-1.1-.82-1.65-1.23-.05-.04-.1-.09-.11-.14-.06-.18-.2-.25-.35-.33-.38-.2-.71-.46-1.02-.75-.18-.17-.41-.29-.57-.47-.43-.48-1.04-.73-1.47-1.18-.14-.15-.38-.16-.51-.33-.36-.44-.89-.66-1.31-1.01-.51-.43-1.06-.82-1.61-1.21-.41-.29-.83-.57-1.23-.87-.53-.4-1.12-.68-1.64-1.09-.32-.25-.71-.42-1.07-.62-.68-.38-1.34-.8-2.04-1.13-.49-.23-.99-.47-1.51-.64-.06-.02-.14-.08-.19,0-.03.07.02.14.07.19.12.1.26.19.37.29.53.48,1.05.96,1.57,1.44.08.07.19.1.27.16.46.33.95.62,1.36,1.02.23.23.52.38.82.52.38.18.7.47,1.07.67.43.23.75.6,1.19.84.59.32,1.14.69,1.71,1.06.12.08.24.15.36.22.2.12.42.2.53.42.04.08.14.1.22.14.37.17.69.39.98.69.25.25.55.48.87.64.46.23.8.6,1.19.91.31.25.64.49.96.73.03.02.08.03.09.06.1.32.42.39.64.58.1.08.17.17.21.3.07.19.19.34.41.37.06,0,.13.04.16.08.41.59,1.06.96,1.49,1.53.26.35.58.67.78,1.07.07.14.17.24.3.32.19.12.34.29.38.52.01.07.05.13.1.19.22.25.39.52.54.82.12.26.22.51.26.79.06.47-.24.72-.71.61-.78-.18-1.4-.65-2.06-1.07-.5-.32-.92-.74-1.45-1-.26-.13-.4-.38-.64-.54-.43-.29-.89-.54-1.23-.96-.06-.07-.15-.11-.23-.17-.06-.04-.14-.06-.18-.11-.26-.39-.7-.57-1.02-.88-.32-.31-.78-.44-1-.85-.02-.04-.08-.07-.13-.09-.4-.12-.62-.46-.92-.69-.36-.28-.65-.63-1.08-.83-.34-.17-.67-.37-.96-.65-.24-.22-.57-.35-.82-.58-.41-.37-.92-.6-1.34-.95-.49-.41-1.1-.63-1.55-1.09-.15-.15-.4-.17-.59-.3-.95-.65-1.97-1.17-3.01-1.64-.26-.12-.47-.35-.88-.33.35.33.38.83.87.99.28.09.38.36.5.59.08.15.16.23.32.28.2.07.32.23.47.37.25.23.42.51.69.73.25.2.6.37.68.76.05.28.33.32.54.42.14.06.26.12.3.27.04.16.21.17.32.27.46.43.94.83,1.39,1.26.31.29.56.65.93.86.52.29.87.77,1.36,1.1.23.15.42.36.67.51.12.07.14.22.07.36-.07.15-.2.14-.32.07-.43-.25-.88-.44-1.3-.71-.39-.26-.79-.52-1.15-.84-.83-.73-1.78-1.32-2.59-2.09-.23-.22-.47-.43-.66-.69-.03-.04-.08-.08-.12-.09-.48-.14-.76-.53-1.1-.85-.21-.2-.46-.38-.7-.56-.09-.07-.21-.13-.24-.23-.11-.39-.45-.54-.74-.75-.11-.08-.22-.17-.24-.31-.03-.22-.17-.33-.33-.45-.39-.3-.73-.65-.9-1.14-.09-.24-.23-.48-.29-.73-.1-.45.24-.78.69-.68.46.1.92.2,1.35.35.71.25,1.46.45,2.1.88.1.07.22.11.34.15.19.06.35.14.49.3.09.11.25.17.39.22.49.19.95.42,1.33.79.14.14.35.16.51.26.4.25.79.52,1.18.77.33.21.72.37.99.71.16.2.51.26.73.45.52.44,1.19.69,1.56,1.31.12.2.43.22.61.4.25.26.58.43.89.61,0,0,.02,0,.02.01.23.42.74.53,1.01.91.09.12.18.22.32.26.14.05.24.14.3.28.03.09.09.15.18.18.14.04.25.13.34.25.07.1.17.16.28.19.06.02.14.03.17.07.27.39.74.54,1.05.9.26.29.56.6.97.74.04.01.09.04.11.07.21.43.68.55,1.01.83.33.27.71.49,1.12.77-.02-.26-.08-.46-.26-.58-.12-.08-.22-.17-.26-.29-.2-.62-.76-.93-1.15-1.39-.19-.22-.4-.42-.6-.63-.29-.33-.55-.71-.94-.94-.04-.02-.08-.06-.09-.09-.03-.3-.28-.35-.49-.46-.07-.03-.16-.07-.2-.12-.39-.5-.96-.8-1.41-1.24-.26-.26-.59-.44-.88-.67-.42-.32-.82-.66-1.24-.97-.24-.18-.53-.29-.76-.47-.82-.62-1.71-1.14-2.55-1.74-.45-.32-.9-.68-1.44-.87-.3-.1-.52-.36-.78-.54-.7-.48-1.38-.97-2.07-1.45-.34-.24-.68-.48-.95-.82-.2-.24-.51-.4-.76-.61-.15-.13-.3-.25-.42-.43-.11-.18-.38-.21-.5-.41-.21-.36-.63-.53-.79-.94-.03-.09-.15-.14-.22-.22-.17-.19-.21-.42-.2-.67.01-.29.17-.44.46-.41.45.06.9.15,1.3.35.36.18.76.25,1.12.43.76.37,1.57.65,2.34,1.03.37.19.77.33,1.1.58.43.33.96.48,1.38.8.27.21.55.38.83.56.32.2.65.41.96.64.45.33.91.62,1.35.97.32.26.63.53,1.01.71.17.08.28.24.41.37.28.28.72.36.91.74,0,.02.02.03.04.04.51.2.77.71,1.21.98.47.29.9.64,1.32.98.23.18.53.33.61.66,0,.04.05.08.09.09.42.07.68.4.98.64.31.25.69.46.89.85.01.02.02.06.04.07.34.12.56.42.85.61.06.04.17.05.2.12.09.26.37.36.5.59.07.13.19.18.32.21.13.03.27.08.34.19.18.32.49.45.79.62.14.08.26.21.38.33.25.27.57.47.84.71.27.24.61.36.87.6.46.43,1.01.76,1.58,1.03.13.06.27.28.37.18.13-.12-.1-.24-.15-.38-.14-.38-.52-.6-.69-.96-.18-.36-.46-.64-.76-.9-.28-.24-.48-.54-.74-.79-.35-.33-.66-.68-1-1.01-.44-.44-.89-.88-1.35-1.29-.29-.26-.62-.49-.89-.77-.56-.59-1.31-.94-1.86-1.55-.2-.22-.5-.36-.74-.55-.55-.45-1.11-.9-1.71-1.28-.55-.35-1.07-.75-1.57-1.15-.56-.45-1.25-.7-1.77-1.19-.35-.33-.79-.51-1.15-.83-.23-.21-.54-.33-.81-.5-.43-.27-.81-.62-1.26-.87-.1-.06-.19-.13-.25-.23-.04-.06-.08-.12-.15-.15-.56-.21-.99-.63-1.45-.99-.36-.28-.75-.54-1.08-.86-.38-.37-.86-.63-1.21-1.05-.12-.15-.21-.32-.31-.48-.15-.22-.02-.43.24-.49.33-.07.66-.01.96.12.39.17.83.25,1.16.56.05.05.13.05.2.06.23.04.44.12.64.24.4.26.85.43,1.26.66.45.26.92.5,1.35.8.49.34,1.04.59,1.55.91.64.4,1.27.8,1.89,1.24.36.26.76.48,1.13.73.56.38,1.14.73,1.65,1.17.24.2.48.4.72.6.18.15.34.26.56.34.31.12.59.3.78.6.08.12.22.2.34.29.33.25.64.51,1.06.62.25.06.46.25.62.44.32.38.74.63,1.15.88.34.21.62.46.87.76.06.07.11.15.2.16.34.05.58.29.87.44.05.02.11.06.12.1.09.32.39.38.63.51.13.07.23.2.34.28.33.24.64.49.81.87.01.03.08.04.12.04.37.04.59.33.88.51.47.31.81.78,1.31,1.05.05.02.09.06.13.09.72.67,1.52,1.23,2.26,1.87.34.3.72.58,1.13.81.15.08.28.18.34.36.02.06.06.11.12.13.39.17.74.4.95.79.01.02.04.04.06.05.29.1.52.28.79.53-.08-.2-.15-.31-.26-.43-.33-.37-.76-.67-.94-1.16-.09-.26-.39-.29-.56-.46-.39-.39-.82-.73-1.19-1.15-.41-.47-.86-.91-1.37-1.28-.16-.11-.23-.28-.37-.41-.35-.31-.69-.64-1.06-.9-.73-.52-1.28-1.23-2.02-1.73-.55-.38-1.06-.85-1.57-1.3-.57-.49-1.1-1.01-1.69-1.47-.33-.26-.67-.52-.98-.79-.36-.31-.74-.58-1.13-.86-.53-.37-.98-.85-1.49-1.24-.35-.26-.71-.52-1.06-.78-.43-.32-.92-.59-1.24-1.05-.17-.25-.47-.37-.73-.5-.33-.16-.61-.37-.85-.62-.33-.34-.74-.53-1.12-.78-.4-.26-.78-.54-1.13-.85-.15-.14-.29-.27-.5-.33-.23-.06-.41-.24-.6-.38-.46-.34-.97-.61-1.41-.99-.19-.16-.28-.48-.18-.69.1-.23.36-.37.62-.3.35.09.7.2,1,.41.12.09.25.11.39.13.51.06.96.24,1.31.64.13.15.32.23.51.24.35.02.65.11.91.36.19.19.48.21.72.33.07.04.16.05.2.12.12.24.34.29.56.33.36.07.62.33.94.48.48.22.91.53,1.38.78.6.33,1.23.62,1.72,1.12.17.17.42.18.63.26.11.04.24.08.28.18.07.23.25.26.45.31.25.07.52.13.68.37.01.02.04.05.06.05.43.06.7.42,1.1.53.14.04.24.12.29.25.08.21.25.33.45.38.57.14,1.04.46,1.52.76.59.37,1.13.81,1.75,1.13.02,0,.03.02.04.03.21.41.67.47,1.01.71.08.06.15.13.2.21.04.08.1.16.18.18.43.11.69.49,1.09.66.24.11.42.35.66.5.3.19.55.47.88.62.18.08.31.25.42.38.28.31.79.36.92.82.01.04.04.09.08.1.4.15.68.5,1.09.64.13.04.27.09.3.23.06.25.26.34.46.44.54.26.98.65,1.47.98.32.21.52.57.87.71.4.16.68.49,1.07.66.22.1.37.32.69.41-.19-.22-.33-.42-.51-.56-.38-.31-.7-.67-1.02-1.03-.34-.37-.78-.61-1.11-.97-.53-.57-1.24-.94-1.76-1.52-.26-.29-.57-.54-.89-.74-.38-.24-.7-.55-1.09-.78-.24-.14-.39-.38-.62-.55-1.02-.73-2.13-1.32-3.13-2.06-.58-.43-1.23-.72-1.83-1.11-.38-.25-.74-.51-1.11-.76-.38-.25-.79-.47-1.19-.69-.15-.09-.32-.15-.46-.27-.31-.26-.72-.35-1.02-.61-.54-.49-1.28-.67-1.79-1.21-.16-.17-.41-.24-.61-.37-.32-.2-.67-.36-.92-.65-.03-.03-.07-.06-.1-.08-.67-.25-1.17-.76-1.73-1.16-.27-.19-.55-.35-.82-.54-.39-.29-.77-.58-1.14-.89-.26-.22-.34-.55-.47-.84-.13-.29.07-.47.42-.5.66-.07,1.25.15,1.85.39.43.17.85.4,1.28.56.53.19.97.53,1.51.7.3.09.57.27.84.44.15.09.29.2.47.24.03,0,.08.02.09.04.23.37.66.37.99.54.32.17.67.31.96.54.15.12.33.17.5.23.46.14.84.41,1.23.66.25.16.56.19.77.4.27.27.66.36.95.6.25.2.53.28.8.41.34.17.69.36.96.64.13.14.27.25.45.32.61.23,1.07.69,1.61,1.03.54.34.99.78,1.55,1.09.54.3,1.09.65,1.5,1.1.39.42.95.61,1.28,1.08.01.02.04.04.07.04.45.09.72.47,1.07.71.5.36.97.76,1.49,1.09.27.17.48.44.73.64.45.35.87.72,1.35,1.04.46.32.88.7,1.33,1.03.22.16.39.39.64.49.21.09.28.31.45.44.23.18.53.26.72.49.24.29.6.42.87.65.32.28.7.47.99.76.12.12.26.19.4.25.21.09.42.17.53.41.08.17.29.24.46.3.41.15.75.42,1.16.56.06.02.13.06.21.03-.07-.36-.32-.61-.5-.9-.22-.34-.5-.63-.71-.97-.08-.13-.22-.22-.32-.35-.22-.29-.51-.55-.72-.83-.3-.41-.72-.68-1.04-1.06-.32-.38-.68-.73-1.09-1.03-.36-.26-.68-.57-1.03-.85-.41-.32-.84-.63-1.24-.96-.43-.35-.91-.64-1.33-.99-.37-.31-.76-.61-1.17-.86-.48-.3-.88-.7-1.37-.98-.62-.37-1.18-.82-1.78-1.22-.43-.29-.85-.59-1.29-.85-.35-.21-.63-.51-1.02-.65-.3-.1-.53-.32-.77-.52-.42-.35-.93-.54-1.38-.83-1.2-.77-2.48-1.38-3.7-2.09-.54-.32-1.12-.57-1.61-.96-.18-.14-.36-.28-.53-.44-.15-.15-.21-.35-.13-.56.08-.21.27-.22.47-.22.28,0,.51.2.78.24.9.16,1.73.53,2.57.87.64.26,1.25.57,1.91.77.29.09.55.26.8.45.05.04.1.07.16.08.6.13,1.11.43,1.63.74.26.16.55.28.82.43.14.07.28.16.4.25.43.33.88.61,1.4.81.4.16.7.5,1.12.64.44.15.77.51,1.21.68.35.14.63.41.96.59.49.26.98.53,1.47.77.5.24.96.56,1.45.8.49.24.9.63,1.43.8.06.02.14.08.15.14.07.27.28.29.49.35.43.12.77.43,1.13.67.68.45,1.34.92,2.01,1.39.41.29.88.49,1.21.89.03.03.07.06.11.07.57.1.93.56,1.39.84.53.33,1.12.59,1.55,1.07.06.07.16.12.3.08-.13-.24-.26-.48-.5-.61-.15-.09-.31-.19-.37-.33-.19-.44-.66-.58-.95-.92-.3-.34-.73-.57-1.05-.9-.3-.32-.63-.59-.95-.88-.28-.24-.67-.36-.93-.63-.38-.39-.91-.61-1.24-1.06-.1-.14-.26-.22-.43-.3-.45-.2-.82-.51-1.17-.85-.17-.16-.34-.29-.55-.39-.34-.16-.65-.38-.95-.6-.28-.2-.59-.38-.88-.57-.43-.3-.86-.6-1.32-.86-.24-.14-.48-.27-.7-.43-.47-.33-.91-.7-1.4-1-.9-.54-1.71-1.21-2.57-1.81-.46-.33-.95-.63-1.33-1.08-.11-.13-.29-.2-.45-.28-.17-.1-.32-.21-.42-.39-.13-.25-.43-.29-.62-.48-.16-.17-.35-.32-.52-.49-.39-.4-.81-.78-1.13-1.25-.2-.29-.34-.62-.31-.99.01-.15.09-.23.22-.27.28-.08.57-.12.86-.05.54.14,1.07.3,1.61.44.2.05.39.12.54.27.03.02.06.05.09.06.66.08,1.22.44,1.82.69.5.2.99.45,1.45.74.15.1.33.18.5.23.34.1.61.34.95.44.06.02.12.04.16.08.45.44,1.08.6,1.58.97.43.32.88.67,1.4.88.11.05.18.2.29.27.45.3.97.5,1.37.87.32.3.75.42,1.02.77.11.14.26.24.46.3.22.06.41.17.57.36.16.19.43.25.65.35.27.13.51.32.67.54.21.3.5.42.79.53.41.17.69.49,1.05.71.26.16.54.32.76.51.33.28.73.44,1.05.74.28.26.62.46.94.67.2.13.4.26.52.48.04.06.09.12.16.14.4.14.73.37,1,.7.25.3.66.38.94.63.05.04.13.05.15.1.22.39.62.51.99.69.19.09.31.3.51.4.4.2.77.46,1.16.69.06.04.13.09.19.03.06-.05,0-.11,0-.17-.11-.5-.43-.88-.69-1.3-.37-.61-.88-1.1-1.32-1.64-.44-.55-.97-1.02-1.47-1.5-.38-.37-.73-.76-1.13-1.11-.5-.44-1.05-.81-1.55-1.26-.2-.18-.43-.32-.58-.57-.09-.15-.29-.2-.43-.3-.64-.44-1.29-.88-1.85-1.42-.5-.49-1.1-.84-1.62-1.3-.3-.26-.57-.55-.84-.84-.12-.12-.26-.21-.39-.32-.3-.25-.52-.58-.73-.9-.15-.24-.15-.62,0-.82.12-.17.43-.21.74-.1.19.07.4.09.6.11.34.04.65.16.94.32.17.09.38.06.55.17.61.4,1.32.62,1.94,1,.7.44,1.45.82,2.1,1.34.51.4,1.09.7,1.58,1.13.07.06.14.14.21.2.39.33.83.59,1.25.89.25.18.46.43.7.63.35.31.74.57,1.11.85.35.27.69.54,1.03.83.07.06.13.12.29.12ZM32.61,6.34c-.14-.14-.3-.16-.45-.18,0,0-.03.05-.02.06.1.12.25.09.38.14.02,0,.05,0,.1-.02Z"/>
</svg>